<?xml version="1.0" encoding="utf-8"?>
<!-- Generator: Adobe Illustrator 28.4.1, SVG Export Plug-In . SVG Version: 6.00 Build 0)  -->
<svg version="1.1" id="Layer_1" xmlns="http://www.w3.org/2000/svg" xmlns:xlink="http://www.w3.org/1999/xlink" x="0px" y="0px"
	 viewBox="0 0 1500 1500" style="enable-background:new 0 0 1500 1500;" xml:space="preserve">
<style type="text/css">
	.st0{fill:#F1EFF8;}
	.st1{opacity:0.7;fill:url(#SVGID_1_);}
	.st2{opacity:0.7;fill:url(#SVGID_00000011716982964764366700000017469326792226341530_);}
	.st3{opacity:0.7;fill:url(#SVGID_00000176043474219919036500000004314777583194272145_);}
	.st4{fill:#477CCA;}
	.st5{fill:#22C0DB;}
	.st6{fill:#FDFDFD;}
	.st7{fill:#5A5AC1;}
	.st8{fill:#10E2E4;}
	.st9{fill:#6C38B8;}
	.st10{fill:#FFFFFF;}
	.st11{opacity:0.75;fill:url(#SVGID_00000094594161195119817160000018031930806751591572_);}
	.st12{opacity:0.1;}
	.st13{opacity:0.5;fill:url(#SVGID_00000075155253763984618120000000551939278218202279_);}
	.st14{opacity:0.5;fill:url(#SVGID_00000064336941526465326960000001507590896990444448_);}
	.st15{opacity:0.5;fill:url(#SVGID_00000109752333116298928060000003095322644833224326_);}
	.st16{fill:#359ED2;}
	.st17{fill:#E2F0F1;}
	.st18{opacity:0.75;fill:url(#SVGID_00000019658996669602506220000015825437053977111946_);}
	.st19{fill:#FAF1F3;}
	.st20{opacity:0.5;fill:url(#SVGID_00000000199956899533786190000003198426983235684737_);}
	.st21{fill:#FBD783;}
	.st22{fill:#131F77;}
	.st23{opacity:0.5;fill:url(#SVGID_00000026856192980479884150000013769629005288415383_);}
	.st24{fill:#2A195B;}
</style>
<g>
	<g id="Secured_Credit_Card_2_">
		<g>
			<path class="st0" d="M1180.05,1097.99c-31.61,25.27-75.74,35.37-127.61,21.05c-146.08-40.37-257.57,26.52-500.83,27.78
				c-172.44,0.86-253.82-7.59-272.36-62.36c-10.09-29.97,0.94-63.22,21.28-100.07c28.87-52.58,76.52-112.59,108.36-181.13
				c16.2-34.74,26.92-52.66,31.92-70.26c7.75-26.84,2.43-53.05-16.67-137.16c-27.46-121.12,98.19-161.96,178.39-110.32
				c12.13,7.75,23.24,17.68,32.63,29.73c71.36,91.93,162.59-8.06,192.55-82.39c17.6-43.5,71.04-71.59,130.04-78.24
				c41.78-4.62,86.3,1.33,122.84,20.11c88.34,45.22,120.57,152.57,59.15,261.8c-22.53,40.14-31.69,62.98-30.12,82.7
				c2.74,34.04,37.4,58.92,90.13,147.41C1253.52,956.77,1237.48,1052.38,1180.05,1097.99z"/>
			<linearGradient id="SVGID_1_" gradientUnits="userSpaceOnUse" x1="827.9128" y1="414.6819" x2="1057.6084" y2="748.3272">
				<stop  offset="0" style="stop-color:#FFFFFF"/>
				<stop  offset="0.087" style="stop-color:#F3F3F3"/>
				<stop  offset="0.2426" style="stop-color:#D5D5D5"/>
				<stop  offset="0.4488" style="stop-color:#A3A3A3"/>
				<stop  offset="0.6977" style="stop-color:#5D5D5D"/>
				<stop  offset="0.9804" style="stop-color:#060606"/>
				<stop  offset="1" style="stop-color:#000000"/>
			</linearGradient>
			<path class="st1" d="M1139.75,636.52c-22.53,40.14-31.69,62.98-30.12,82.7c-16.12-14.24-31.3-30.12-50.62-39.36
				c-37.09-17.68-81.37-7.28-119.16,9c-23.24,9.94-46.08,22.38-62.59,41.47c-4.38,5.09-8.37,10.56-13.54,14.79
				c-11.42,9.39-27.23,11.27-42.02,10.72c-19.72-0.78-39.36-5.24-57.43-13.07c-19.25-8.37-38.57-23.55-39.59-44.52
				c-0.78-16.59,10.41-31.45,23.24-42.02c21.28-17.6,47.73-27.46,73.31-37.95c31.38-12.91,62.12-27.23,92.09-42.95
				c12.6-6.57,25.12-13.54,35.83-22.85c30.98-27.23,41.7-72.22,37.01-113.29c-2.5-21.44-8.68-42.17-16.43-62.2
				c-1.88-4.77-6.96-13.3-11.97-22.38c41.78-4.62,86.3,1.33,122.84,20.11C1168.94,419.95,1201.17,527.3,1139.75,636.52z"/>
			
				<linearGradient id="SVGID_00000085244412011653272390000005462846920808922517_" gradientUnits="userSpaceOnUse" x1="704.0289" y1="511.3969" x2="568.2235" y2="786.3608">
				<stop  offset="0" style="stop-color:#FFFFFF"/>
				<stop  offset="0.0851" style="stop-color:#F5F5F5"/>
				<stop  offset="0.2292" style="stop-color:#DBDBDB"/>
				<stop  offset="0.4147" style="stop-color:#AFAFAF"/>
				<stop  offset="0.6344" style="stop-color:#737373"/>
				<stop  offset="0.8801" style="stop-color:#282828"/>
				<stop  offset="1" style="stop-color:#000000"/>
			</linearGradient>
			<path style="opacity:0.7;fill:url(#SVGID_00000085244412011653272390000005462846920808922517_);" d="M856.05,748.25
				c-4.15,20.81-24.02,34.19-42.56,44.52c-44.75,24.96-96.08,46.4-146.08,34.97c-58.76-13.38-99.91-68.62-157.34-87
				c-22.3-7.04-45.69-8.22-69.24-7.75c7.75-26.84,2.43-53.05-16.67-137.16c-27.46-121.12,98.19-161.96,178.39-110.32
				c2.97,16.67,7.04,33.17,12.91,49.06c14.55,39.67,40.84,76.44,78.4,95.92c16.51,8.53,34.5,13.54,52.27,19.09
				c31.84,10.09,64,22.92,88.1,46.16C848.46,709.44,859.96,728.85,856.05,748.25z"/>
			
				<linearGradient id="SVGID_00000171707172151126052030000007485190516429137339_" gradientUnits="userSpaceOnUse" x1="741.2194" y1="997.6987" x2="704.334" y2="1210.6281">
				<stop  offset="0" style="stop-color:#FFFFFF"/>
				<stop  offset="0.1194" style="stop-color:#FBFBFB"/>
				<stop  offset="0.2443" style="stop-color:#EEEEEE"/>
				<stop  offset="0.3716" style="stop-color:#D9D9D9"/>
				<stop  offset="0.5006" style="stop-color:#BCBCBC"/>
				<stop  offset="0.631" style="stop-color:#969696"/>
				<stop  offset="0.7626" style="stop-color:#686868"/>
				<stop  offset="0.8924" style="stop-color:#323232"/>
				<stop  offset="1" style="stop-color:#000000"/>
			</linearGradient>
			<path style="opacity:0.7;fill:url(#SVGID_00000171707172151126052030000007485190516429137339_);" d="M1180.05,1097.99
				c-31.61,25.27-75.74,35.37-127.61,21.05c-146.08-40.37-257.57,26.52-500.83,27.78c-172.44,0.86-253.82-7.59-272.36-62.36
				c-10.09-29.97,0.94-63.22,21.28-100.07c36.07-12.6,73.55-21.13,111.49-25.35c16.2-1.88,32.55-2.89,48.74-0.94
				c35.37,4.22,67.21,22.06,99.6,36.93c85.13,39.04,179.33,58.13,272.99,55.32c62.2-1.8,124.09-13.14,186.29-10.88
				C1077.78,1041.58,1138.73,1057.78,1180.05,1097.99z"/>
		</g>
		<g>
			<g>
				<path class="st4" d="M1148.93,958.25c15.23,12.28,73.56,17.47,90.95,2.27c-1.55-14.15-52.08-41.09-84.25-20.09
					c8.82-21.62,19.82-41.96,32.97-59.86c6.92,11.54,60.3,17.43,75.38,4.24c-1.19-10.87-38.34-31.13-64.22-18.21
					c14.01-16.11,30.06-29.54,48.15-39.16c2.17,9.72,39.41,26.31,53.58,20.56c1.64-7.29-16.93-27.3-37.01-28.04
					c8.87-3.34,18.18-5.77,27.91-7.24c6.57,7.6,30.75,17.39,40.62,13.39c1.59-7.07-21.01-29.38-40.18-19.64c0,0,0,0-0.01,0.01
					c-7.95,1.11-15.66,2.78-23.07,5.09c2.02-16.51-19.86-28.03-24.87-25.18c-0.71,8.08,11.26,23.02,18.85,27.27
					c-13.37,4.84-25.82,11.57-37.31,19.88c4.03-30.2-36.04-51.32-45.17-46.12c-1.43,16.18,25.18,47.63,38.24,51.39
					c-16.09,12.94-30.19,29.02-42.29,47.16c0.57-32.53-42.36-54.67-52.46-48.92c-1.71,19.32,31.27,57.53,45.65,59.62
					c-13.93,23.22-24.83,49.26-32.66,76.15c-3.54-37.16-52.26-61.82-64.13-55.06c-2.24,25.39,44.26,77.31,59.39,73.05
					c-4.14,17.36-7.04,34.89-8.65,52.07l6.19,0.86C1133.18,1015.39,1139.35,986.1,1148.93,958.25z"/>
				<g>
					<path class="st5" d="M1126.25,1072.74c22.57-28.64,62.62-68.66,51.21-79.72c-11.4-11.06-23.62,12.48-30.59,2.89
						c-6.97-9.59,5.05-21.89,28.33-42.06c23.27-20.17,17.08-48.33,4.21-54.97s-27.03,40.24-41.7,38.34
						c-14.67-1.9,22.82-39.46,9.84-66.3s-25.05-29.92-29.8-8.31c-4.76,21.61-9.52,35.84-21.9,25.06
						c-12.38-10.78-19.83-39.64-38.01-26.61c-18.19,13.03,16.2,34.36,2.41,49.5s-39.61-3.91-47.99,4.72s7.01,31.73,26.78,34.48
						c19.77,2.75,37.39,3.17,33.88,18.1c-3.51,14.93-26.05-5.9-39.92,3.46c-13.86,9.36,28.43,40.96,51.58,47.39
						c23.14,6.42,12.88,14.01-1.02,12.95c-24.02-1.84-6.12,15.86,12.57,21.38C1115.14,1058.65,1112.76,1089.87,1126.25,1072.74z"/>
					<path class="st6" d="M1132.24,1028.07c1.61-0.16,3.08-0.88,4.37-1.67c0.31-0.19,0.61-0.38,0.91-0.55
						c2.16-1.25,4.27-2.56,6.28-3.92c4.75-3.2,9.3-6.42,12.74-10.51c0.37-0.45,0.32-1.11-0.13-1.49c-0.45-0.38-1.12-0.32-1.49,0.13
						c-3.26,3.88-7.68,7-12.3,10.12c-1.96,1.33-4.04,2.62-6.15,3.83c-0.31,0.18-0.63,0.38-0.96,0.58c-1.05,0.65-2.13,1.18-3.19,1.36
						c0.23-5.74,0.09-11.58-0.29-17.47c0-0.02,0.03-0.04,0.03-0.06c0-0.03-0.03-0.05-0.03-0.08c-0.4-6.19-1.03-12.43-2.12-18.71
						c-1.18-6.84-3.03-13.13-4.86-18.85c3.43,0.35,6.85-0.95,9.81-2.45c10.95-5.56,20.78-13.59,28.42-23.22
						c0.36-0.45,0.3-1.05-0.17-1.49c-0.46-0.36-1.12-0.29-1.49,0.17c-7.45,9.39-17.04,17.22-27.72,22.65
						c-2.95,1.49-6.36,2.85-9.53,2.14c-0.17-0.52-0.34-1.15-0.51-1.65c-4.96-14.87-11.03-30.89-19.26-46.08
						c4.46-3.64,9.04-7.4,12.33-12.33c1.21-1.82,2.22-3.76,3.19-5.64l4.7-9.06c0.26-0.52,0.07-1.15-0.45-1.43
						c-0.52-0.26-1.16-0.06-1.43,0.45l-4.7,9.06c-0.94,1.83-1.92,3.71-3.07,5.44c-3.03,4.55-7.35,8.14-11.59,11.6
						c-5.84-10.48-12.72-20.53-21.15-29.42c-0.4-0.42-1.07-0.44-1.5-0.03c-0.41,0.4-0.44,1.06-0.05,1.48c0,0,0.01,0.01,0.01,0.02
						c13.04,13.61,22.39,30.03,29.66,46.65c-1.07,0.67-2.37,1.02-3.67,1.32c-7.59,1.74-15.43,3.54-23.26,2.77
						c-2.44-0.24-5.08-0.75-8.06-1.57c-7.67-2.1-14.9-5.41-21.5-9.83c-0.49-0.33-1.14-0.19-1.47,0.29c-0.28,0.41-0.22,0.95,0.1,1.31
						c0.06,0.06,0.12,0.12,0.19,0.16c6.78,4.55,14.23,7.95,22.12,10.11c3.1,0.85,5.85,1.38,8.41,1.64
						c8.16,0.8,16.18-1.04,23.93-2.82c1.3-0.3,2.72-0.72,4.01-1.45c4.05,9.47,7.46,18.98,10.48,28.03
						c2.16,6.46,4.55,14.18,5.97,22.38c1.01,5.83,1.61,11.62,2.02,17.37c-8.45,0.01-18.07-0.22-27.26-2.45
						c-6.98-1.69-16.72-5.33-23.89-13.12c-0.13-0.14-0.33-0.32-0.38-0.42c-0.39-0.43-1.05-0.46-1.48-0.07
						c-0.43,0.39-0.47,1.06-0.09,1.49c0.13,0.14,0.26,0.29,0.39,0.43c5.97,6.49,14.59,11.24,24.95,13.75
						c9.47,2.29,19.29,2.52,27.9,2.51c1.59,26.79-3.16,52.35-14.07,73.45c-0.21,0.4-0.13,0.88,0.16,1.2
						c0.08,0.09,0.18,0.17,0.29,0.22c0.52,0.27,1.15,0.07,1.42-0.45C1126.28,1067.46,1131.16,1048.35,1132.24,1028.07z"/>
				</g>
				<g>
					<path class="st7" d="M1127.88,1081.64c27.36-1.7,69.86,0.7,70.35-11.24c0.49-11.93-18.83-6.98-16.95-15.7s14.8-8.13,37.77-5.19
						s35.65-14.64,32.92-25.18c-2.73-10.54-36.1,5.01-42.39-4.16s33.55-6.98,42.09-27.71s4.22-29.03-10.28-20.87
						c-14.5,8.16-24.86,12.62-25.02,0.28s12.29-30.98-4.13-34.64c-16.42-3.67-11.14,26.29-26.53,26.15s-17.66-24.16-26.69-24.53
						c-9.04-0.37-14.27,19.82-5.91,32.29c8.36,12.46,16.96,22.55,6.83,28.06c-10.13,5.51-9.74-17.56-21.94-20.64
						c-12.19-3.08-8.72,36.46-0.72,52.65s-1.4,14.24-7.77,5.91c-11-14.38-11.96,4.51-5.68,17.76
						C1130.22,1068.34,1111.52,1082.66,1127.88,1081.64z"/>
					<path class="st6" d="M1155.92,1062.61c0.9,0.82,2.04,1.29,3.13,1.61c0.26,0.08,0.52,0.15,0.76,0.23
						c1.78,0.59,3.58,1.11,5.34,1.56c4.17,1.06,8.26,2,12.27,1.88c0.44-0.02,0.79-0.38,0.77-0.82c-0.01-0.44-0.38-0.78-0.82-0.77
						c-3.81,0.12-7.77-0.8-11.83-1.83c-1.73-0.43-3.49-0.95-5.23-1.53c-0.26-0.08-0.53-0.16-0.81-0.25
						c-0.89-0.27-1.73-0.6-2.36-1.11c3.33-2.75,6.54-5.75,9.65-8.91c0.01-0.01,0.03,0,0.05-0.02c0.02-0.02,0.01-0.04,0.03-0.06
						c3.27-3.33,6.45-6.8,9.43-10.56c3.24-4.09,5.84-8.28,8.13-12.17c1.52,2.1,3.97,3.36,6.29,4.27c8.6,3.35,18.03,4.84,27.25,4.3
						c0.43-0.03,0.74-0.36,0.75-0.84c-0.03-0.44-0.4-0.77-0.84-0.75c-9,0.53-18.19-0.92-26.58-4.19c-2.31-0.91-4.79-2.14-5.98-4.27
						c0.21-0.36,0.47-0.77,0.67-1.11c5.85-10.23,11.79-21.66,16.18-33.88c4.27,0.68,8.68,1.36,13.09,0.73
						c1.63-0.23,3.22-0.64,4.76-1.04l7.43-1.91c0.42-0.11,0.68-0.54,0.57-0.97c-0.11-0.42-0.54-0.68-0.97-0.57l-7.43,1.91
						c-1.5,0.39-3.04,0.78-4.59,1c-4.07,0.58-8.25-0.04-12.31-0.68c2.95-8.52,5.13-17.42,5.89-26.6c0.03-0.44-0.29-0.82-0.73-0.85
						c-0.43-0.03-0.81,0.29-0.85,0.72c0,0,0,0.01,0,0.02c-1.1,14.13-5.61,27.6-11.29,40c-0.91-0.26-1.76-0.82-2.58-1.39
						c-4.78-3.38-9.72-6.88-13.2-11.65c-1.09-1.49-2.12-3.22-3.16-5.3c-2.66-5.35-4.43-11.06-5.26-16.97
						c-0.06-0.44-0.46-0.74-0.9-0.68c-0.37,0.05-0.65,0.35-0.68,0.71c-0.01,0.06-0.01,0.12,0,0.19c0.85,6.08,2.67,11.96,5.41,17.46
						c1.08,2.16,2.16,3.97,3.3,5.54c3.64,4.98,8.69,8.55,13.57,12c0.82,0.58,1.76,1.16,2.82,1.52c-3.28,7.01-6.9,13.69-10.46,19.92
						c-2.54,4.45-5.67,9.65-9.56,14.56c-2.76,3.49-5.71,6.72-8.72,9.84c-4.24-4.73-8.93-10.24-12.29-16.51
						c-2.55-4.76-5.39-12.04-4.61-19.97c0.01-0.14,0.01-0.35,0.04-0.42c0.04-0.43-0.27-0.82-0.7-0.87c-0.44-0.05-0.83,0.26-0.88,0.7
						c-0.02,0.14-0.03,0.29-0.05,0.43c-0.65,6.6,1.01,13.81,4.79,20.88c3.46,6.45,8.25,12.07,12.57,16.89
						c-14.22,14.32-30.93,24.46-48.22,28.91c-0.33,0.08-0.56,0.37-0.59,0.69c-0.01,0.09,0,0.18,0.02,0.28
						c0.11,0.43,0.54,0.68,0.97,0.57C1130.86,1079.01,1144.01,1072.17,1155.92,1062.61z"/>
				</g>
			</g>
			<g>
				<g>
					<path class="st8" d="M1139.78,812.27v228.64c0,27.9-19.51,51.2-45.24,57.43c-4.34,1.08-9.21,1.63-13.82,1.63H678.99
						c-32.51,0-59.06-26.28-59.06-59.06V812.27c0-32.51,26.55-58.78,59.06-58.78h401.74
						C1113.24,753.49,1139.78,779.77,1139.78,812.27z"/>
					<rect x="619.94" y="839.09" class="st9" width="519.85" height="63.93"/>
					<path class="st9" d="M1091.66,1043.02h-96.22c-2.51,0-4.54-2.03-4.54-4.54v-54.61c0-2.51,2.03-4.54,4.54-4.54h96.22
						c2.51,0,4.54,2.03,4.54,4.54v54.61C1096.2,1040.98,1094.17,1043.02,1091.66,1043.02z"/>
					<path class="st10" d="M847.61,1023.49H687.6c-0.97,0-1.76-0.79-1.76-1.76v-21.11c0-0.97,0.79-1.76,1.76-1.76h160.01
						c0.97,0,1.76,0.79,1.76,1.76v21.11C849.36,1022.7,848.58,1023.49,847.61,1023.49z"/>
					<path class="st10" d="M936.7,1023.49h-68.47c-0.97,0-1.76-0.79-1.76-1.76v-21.11c0-0.97,0.79-1.76,1.76-1.76h68.47
						c0.97,0,1.76,0.79,1.76,1.76v21.11C938.46,1022.7,937.67,1023.49,936.7,1023.49z"/>
					<path class="st10" d="M669.41,1023.49h-32.48c-0.97,0-1.76-0.79-1.76-1.76v-21.11c0-0.97,0.79-1.76,1.76-1.76h32.48
						c0.97,0,1.76,0.79,1.76,1.76v21.11C671.17,1022.7,670.38,1023.49,669.41,1023.49z"/>
				</g>
				
					<linearGradient id="SVGID_00000076604698634723435360000003697946653762871965_" gradientUnits="userSpaceOnUse" x1="745.4704" y1="823.2382" x2="1180.8383" y2="1158.4714">
					<stop  offset="7.662835e-03" style="stop-color:#FFFFFF"/>
					<stop  offset="0.0345" style="stop-color:#EAEAEA"/>
					<stop  offset="0.1027" style="stop-color:#B9B9B9"/>
					<stop  offset="0.1764" style="stop-color:#8D8D8D"/>
					<stop  offset="0.2539" style="stop-color:#676767"/>
					<stop  offset="0.3364" style="stop-color:#474747"/>
					<stop  offset="0.4252" style="stop-color:#2D2D2D"/>
					<stop  offset="0.5227" style="stop-color:#191919"/>
					<stop  offset="0.6335" style="stop-color:#0B0B0B"/>
					<stop  offset="0.769" style="stop-color:#020202"/>
					<stop  offset="1" style="stop-color:#000000"/>
				</linearGradient>
				<path style="opacity:0.75;fill:url(#SVGID_00000076604698634723435360000003697946653762871965_);" d="M1139.78,812.27v58.51
					c-23.3-14.63-50.93-23.03-78.83-24.11c-15.17-0.54-31.15,1.35-44.15,8.94c-17.07,9.75-26.82,27.9-29.53,47.41
					c-1.63,9.21-1.35,18.69,0.27,27.9c3.79,18.69,12.73,35.49,23.84,50.66c5.96,7.86,12.46,15.44,18.96,22.48
					c12.19,13,25.19,25.19,36.3,38.74c3.52,3.79,6.77,8.13,9.75,12.46c9.21,13,15.98,27.9,18.15,43.07
					c-4.34,1.08-9.21,1.63-13.82,1.63H678.99c-32.51,0-59.06-26.28-59.06-59.06V893.27c11.65-4.6,23.84-7.31,36.03-8.13
					c28.71-1.9,57.16,6.5,85.87,9.75c31.15,3.25,62.85,0.81,93.19-7.58c26.82-7.59,53.37-20.59,70.7-42.53
					c1.63-1.9,2.98-3.79,4.06-5.69c18.96-28.17,16.8-56.08,11.92-85.6h159.02C1113.24,753.49,1139.78,779.77,1139.78,812.27z"/>
			</g>
			<path class="st12" d="M743.39,886.83l-118.23-47.1l-144.29,57.35c0,0.4-0.97,1.46-2.25,2.79c-2.9,2.93-8.04,7.18-8.04,7.18
				c5.95,85.42,62.09,159.27,144.29,202.52c28.15-14.9,53.24-33.27,74.15-54.56c46.49-42.18,76.08-97.13,80.27-157.94L743.39,886.83
				z"/>
			<g>
				<g>
					<path class="st8" d="M1076.76,655.55c0,6.64-2.66,12.61-7.02,16.97c-4.36,4.27-10.34,7.02-16.98,7.02H844.9
						c-13.18,0-23.9-10.81-23.9-23.99c0-6.64,2.66-12.61,7.02-16.97c4.36-4.36,10.24-7.02,16.88-7.02h207.87
						c1.99,0,3.89,0.19,5.69,0.66C1068.98,634.78,1076.76,644.27,1076.76,655.55z"/>
					<path class="st10" d="M960.57,653.82h-7.56l5.35-5.35c0.67-0.67,0.67-1.77,0-2.44c-0.67-0.67-1.77-0.67-2.44,0l-5.35,5.35
						v-7.56c0-0.95-0.77-1.73-1.73-1.73h0c-0.95,0-1.73,0.77-1.73,1.73v7.56l-5.35-5.35c-0.67-0.67-1.77-0.67-2.44,0
						c-0.67,0.67-0.67,1.77,0,2.44l5.35,5.35h-7.56c-0.95,0-1.73,0.77-1.73,1.73c0,0.95,0.77,1.73,1.73,1.73h7.56l-5.35,5.35
						c-0.67,0.67-0.67,1.77,0,2.44c0.67,0.67,1.77,0.67,2.44,0l5.35-5.35v7.56c0,0.95,0.77,1.73,1.73,1.73h0
						c0.95,0,1.73-0.77,1.73-1.73v-7.56l5.35,5.35c0.67,0.67,1.77,0.67,2.44,0c0.67-0.67,0.67-1.77,0-2.44l-5.35-5.35h7.56
						c0.95,0,1.73-0.77,1.73-1.73C962.29,654.59,961.52,653.82,960.57,653.82z"/>
					<path class="st10" d="M923.99,653.82h-7.56l5.35-5.35c0.67-0.67,0.67-1.77,0-2.44c-0.67-0.67-1.77-0.67-2.44,0l-5.35,5.35
						v-7.56c0-0.95-0.77-1.73-1.73-1.73h0c-0.95,0-1.73,0.77-1.73,1.73v7.56l-5.35-5.35c-0.67-0.67-1.77-0.67-2.44,0
						c-0.67,0.67-0.67,1.77,0,2.44l5.35,5.35h-7.56c-0.95,0-1.73,0.77-1.73,1.73c0,0.95,0.77,1.73,1.73,1.73h7.56l-5.35,5.35
						c-0.67,0.67-0.67,1.77,0,2.44c0.67,0.67,1.77,0.67,2.44,0l5.35-5.35v7.56c0,0.95,0.77,1.73,1.73,1.73h0
						c0.95,0,1.73-0.77,1.73-1.73v-7.56l5.35,5.35c0.67,0.67,1.77,0.67,2.44,0c0.67-0.67,0.67-1.77,0-2.44l-5.35-5.35h7.56
						c0.95,0,1.73-0.77,1.73-1.73C925.72,654.59,924.94,653.82,923.99,653.82z"/>
					<path class="st10" d="M887.41,653.82h-7.56l5.35-5.35c0.67-0.67,0.67-1.77,0-2.44c-0.67-0.67-1.77-0.67-2.44,0l-5.35,5.35
						v-7.56c0-0.95-0.77-1.73-1.73-1.73h0c-0.95,0-1.73,0.77-1.73,1.73v7.56l-5.35-5.35c-0.67-0.67-1.77-0.67-2.44,0
						c-0.67,0.67-0.67,1.77,0,2.44l5.35,5.35h-7.56c-0.95,0-1.73,0.77-1.73,1.73c0,0.95,0.77,1.73,1.73,1.73h7.56l-5.35,5.35
						c-0.67,0.67-0.67,1.77,0,2.44c0.67,0.67,1.77,0.67,2.44,0l5.35-5.35v7.56c0,0.95,0.77,1.73,1.73,1.73h0
						c0.95,0,1.73-0.77,1.73-1.73v-7.56l5.35,5.35c0.67,0.67,1.77,0.67,2.44,0c0.67-0.67,0.67-1.77,0-2.44l-5.35-5.35h7.56
						c0.95,0,1.73-0.77,1.73-1.73C889.14,654.59,888.37,653.82,887.41,653.82z"/>
					<path class="st10" d="M973.69,653.82h7.56l-5.35-5.35c-0.67-0.67-0.67-1.77,0-2.44c0.67-0.67,1.77-0.67,2.44,0l5.35,5.35v-7.56
						c0-0.95,0.77-1.73,1.73-1.73h0c0.95,0,1.73,0.77,1.73,1.73v7.56l5.35-5.35c0.67-0.67,1.77-0.67,2.44,0
						c0.67,0.67,0.67,1.77,0,2.44l-5.35,5.35h7.56c0.95,0,1.73,0.77,1.73,1.73c0,0.95-0.77,1.73-1.73,1.73h-7.56l5.35,5.35
						c0.67,0.67,0.67,1.77,0,2.44c-0.67,0.67-1.77,0.67-2.44,0l-5.35-5.35v7.56c0,0.95-0.77,1.73-1.73,1.73h0
						c-0.95,0-1.73-0.77-1.73-1.73v-7.56l-5.35,5.35c-0.67,0.67-1.77,0.67-2.44,0c-0.67-0.67-0.67-1.77,0-2.44l5.35-5.35h-7.56
						c-0.95,0-1.73-0.77-1.73-1.73C971.97,654.59,972.74,653.82,973.69,653.82z"/>
					<path class="st10" d="M1010.27,653.82h7.56l-5.35-5.35c-0.67-0.67-0.67-1.77,0-2.44c0.67-0.67,1.77-0.67,2.44,0l5.35,5.35
						v-7.56c0-0.95,0.77-1.73,1.73-1.73h0c0.95,0,1.73,0.77,1.73,1.73v7.56l5.35-5.35c0.67-0.67,1.77-0.67,2.44,0
						c0.67,0.67,0.67,1.77,0,2.44l-5.35,5.35h7.56c0.95,0,1.73,0.77,1.73,1.73c0,0.95-0.77,1.73-1.73,1.73h-7.56l5.35,5.35
						c0.67,0.67,0.67,1.77,0,2.44c-0.67,0.67-1.77,0.67-2.44,0l-5.35-5.35v7.56c0,0.95-0.77,1.73-1.73,1.73h0
						c-0.95,0-1.73-0.77-1.73-1.73v-7.56l-5.35,5.35c-0.67,0.67-1.77,0.67-2.44,0c-0.67-0.67-0.67-1.77,0-2.44l5.35-5.35h-7.56
						c-0.95,0-1.73-0.77-1.73-1.73C1008.54,654.59,1009.32,653.82,1010.27,653.82z"/>
				</g>
				
					<linearGradient id="SVGID_00000121251568059140101460000009274043946660490926_" gradientUnits="userSpaceOnUse" x1="821.0005" y1="655.5513" x2="1076.7604" y2="655.5513">
					<stop  offset="0" style="stop-color:#FFFFFF"/>
					<stop  offset="0.0976" style="stop-color:#F9F9F9"/>
					<stop  offset="0.2217" style="stop-color:#EAEAEA"/>
					<stop  offset="0.36" style="stop-color:#D0D0D0"/>
					<stop  offset="0.5087" style="stop-color:#ABABAB"/>
					<stop  offset="0.6658" style="stop-color:#7D7D7D"/>
					<stop  offset="0.83" style="stop-color:#434343"/>
					<stop  offset="0.9971" style="stop-color:#010101"/>
					<stop  offset="1" style="stop-color:#000000"/>
				</linearGradient>
				<path style="opacity:0.5;fill:url(#SVGID_00000121251568059140101460000009274043946660490926_);" d="M1076.76,655.55
					c0,6.64-2.66,12.61-7.02,16.97c-4.36,4.27-10.34,7.02-16.98,7.02H844.9c-13.18,0-23.9-10.81-23.9-23.99
					c0-6.64,2.66-12.61,7.02-16.97c4.36-4.36,10.24-7.02,16.88-7.02h30.35c5.5,2.47,10.91,5.31,16.41,7.97
					c6.16,3.03,12.42,5.69,18.87,8.06c1.14,0.47,2.37,0.85,3.51,1.33c0.57,0.19,1.23,0.38,1.8,0.66c1.23,0.38,2.47,0.76,3.7,1.14
					c5.22,1.8,10.53,3.32,15.84,4.55c2.94,0.76,5.97,1.42,8.91,1.99c0.09,0.09,0.19,0.09,0.28,0.09c3.41,0.76,6.92,1.42,10.43,1.9
					c7.21,1.14,14.51,1.9,21.81,2.37c1.61,0.09,3.22,0.19,4.84,0.09c0.66,0.19,1.42,0.19,2.09,0.09c1.14,0.09,2.28,0.19,3.41,0.09
					c0.76,0.09,1.52,0.09,2.28,0.09c1.61,0,3.22,0,4.84-0.09c6.73-0.09,13.47-0.47,20.2-1.33c1.8-0.09,3.6-0.28,5.5-0.57
					c0.09,0,0.19,0,0.28-0.09c2.47-0.28,4.93-0.66,7.4-1.14c1.71-0.28,3.51-0.57,5.22-0.95c4.36-0.85,8.82-1.9,12.61-4.36
					c3.79-2.56,6.45-6.35,8.72-10.34c0.95-1.61,2.47-6.45,4.27-10.91C1068.98,634.78,1076.76,644.27,1076.76,655.55z"/>
			</g>
			<g>
				<path class="st8" d="M1076.76,571.82c0,6.64-2.66,12.61-7.02,16.98c-4.36,4.36-10.34,7.02-16.98,7.02H844.9
					c-13.18,0-23.9-10.72-23.9-23.99c0-6.54,2.66-12.61,7.02-16.97c4.36-4.36,10.24-7.02,16.88-7.02h207.87
					C1066.04,547.82,1076.76,558.63,1076.76,571.82z"/>
				<g>
					<path class="st10" d="M858.77,576.48c2.13,0,3.45-1.31,3.45-3.53v-7.65h2.2v7.65c0,3.42-2.14,5.51-5.67,5.51
						c-3.53,0-5.7-2.09-5.7-5.51v-7.65h2.2v7.65C855.26,575.16,856.62,576.48,858.77,576.48z"/>
					<path class="st10" d="M870.28,570.06c-0.84,0-1.45,0.28-1.45,0.99c0,1.83,5.28,0.84,5.26,4.44c0,2.04-1.81,2.95-3.81,2.95
						c-1.45,0-3.01-0.49-3.99-1.38l0.76-1.53c0.86,0.77,2.24,1.23,3.32,1.23c0.91,0,1.62-0.31,1.62-1.06c0-2.04-5.23-0.9-5.2-4.48
						c0-2.01,1.75-2.88,3.66-2.88c1.25,0,2.57,0.38,3.47,1.01l-0.78,1.59C872.26,570.4,871.16,570.06,870.28,570.06z"/>
					<path class="st10" d="M885.02,574.22h-7.5c0.33,1.53,1.51,2.48,3.08,2.48c1.08,0,2.07-0.41,2.8-1.16l1.13,1.21
						c-0.97,1.07-2.39,1.68-4.1,1.68c-3.07,0-5.08-2.03-5.08-5.02c0-3.01,2.07-5.04,5.02-5.06
						C883.86,568.36,885.28,570.64,885.02,574.22z M883.15,572.65c-0.07-1.6-1.14-2.57-2.76-2.57c-1.57,0-2.69,0.99-2.91,2.57
						H883.15z"/>
					<path class="st10" d="M892.86,568.36v2.06c-2-0.11-3.26,1.06-3.44,2.76v5.19h-2.14v-9.93h2.14v1.98
						C890.1,569.07,891.3,568.36,892.86,568.36z"/>
					<path class="st10" d="M902.56,565.3l7,9.39v-9.39h2.17v13.07h-2.17L902.6,569v9.37h-2.2V565.3H902.56z"/>
					<path class="st10" d="M921.05,578.37v-1.21c-0.71,0.88-1.85,1.31-3.29,1.31c-2.14,0-3.49-1.32-3.49-3.08
						c0-1.81,1.37-2.97,3.76-2.99h3.01v-0.3c0-1.25-0.81-2-2.37-2c-0.95,0-1.94,0.34-2.93,1.01l-0.88-1.5
						c1.38-0.82,2.39-1.25,4.27-1.25c2.56,0,4,1.31,4.01,3.49l0.02,6.52H921.05z M921.03,574.88v-0.91h-2.69
						c-1.4,0-2.05,0.37-2.05,1.32c0,0.89,0.73,1.47,1.92,1.47C919.74,576.76,920.91,575.96,921.03,574.88z"/>
					<path class="st10" d="M942.65,572.19v6.18h-2.14v-5.58c0-1.51-0.9-2.43-2.35-2.43c-1.7,0.06-2.73,1.36-2.73,3.1v4.91h-2.14
						v-5.58c0-1.51-0.88-2.43-2.33-2.43c-1.72,0.06-2.76,1.36-2.76,3.1v4.91h-2.13v-9.93h2.13v1.93c0.69-1.4,1.96-2,3.6-2
						c1.77,0,2.99,0.88,3.45,2.39c0.63-1.66,1.96-2.39,3.77-2.39C941.29,568.36,942.65,569.82,942.65,572.19z"/>
					<path class="st10" d="M954.31,574.22h-7.5c0.33,1.53,1.51,2.48,3.08,2.48c1.08,0,2.07-0.41,2.8-1.16l1.13,1.21
						c-0.97,1.07-2.39,1.68-4.1,1.68c-3.07,0-5.08-2.03-5.08-5.02c0-3.01,2.07-5.04,5.02-5.06
						C953.15,568.36,954.57,570.64,954.31,574.22z M952.44,572.65c-0.07-1.6-1.14-2.57-2.76-2.57c-1.57,0-2.69,0.99-2.91,2.57
						H952.44z"/>
				</g>
				
					<linearGradient id="SVGID_00000013895108125714012590000006521034638692034738_" gradientUnits="userSpaceOnUse" x1="821.0005" y1="571.8153" x2="1076.7604" y2="571.8153">
					<stop  offset="0" style="stop-color:#FFFFFF"/>
					<stop  offset="0.0976" style="stop-color:#F9F9F9"/>
					<stop  offset="0.2217" style="stop-color:#EAEAEA"/>
					<stop  offset="0.36" style="stop-color:#D0D0D0"/>
					<stop  offset="0.5087" style="stop-color:#ABABAB"/>
					<stop  offset="0.6658" style="stop-color:#7D7D7D"/>
					<stop  offset="0.83" style="stop-color:#434343"/>
					<stop  offset="0.9971" style="stop-color:#010101"/>
					<stop  offset="1" style="stop-color:#000000"/>
				</linearGradient>
				<path style="opacity:0.5;fill:url(#SVGID_00000013895108125714012590000006521034638692034738_);" d="M1076.76,571.82
					c0,6.64-2.66,12.61-7.02,16.98c-4.36,4.36-10.34,7.02-16.98,7.02H844.9c-13.18,0-23.9-10.72-23.9-23.99
					c0-6.54,2.66-12.61,7.02-16.97c4.36-4.36,10.24-7.02,16.88-7.02h23.23c12.42,4.65,24.18,10.91,36.41,16.03
					c32.72,13.66,69.13,18.4,104.31,13.66c14.22-1.99,30.06-6.73,36.32-19.63c1.61-3.13,2.37-6.54,2.75-10.05h4.84
					C1066.04,547.82,1076.76,558.63,1076.76,571.82z"/>
			</g>
			<g>
				<path class="st8" d="M992.34,464.74c0,23.63-19.09,42.72-42.72,42.72c-21.12,0-38.73-15.26-42.17-35.44
					c-0.39-2.35-0.63-4.77-0.63-7.28c0-23.63,19.17-42.8,42.8-42.8c8.53,0,16.59,2.5,23.24,6.89
					C984.59,436.41,992.34,449.64,992.34,464.74z"/>
				<path class="st10" d="M972.93,489.62v0.94c-6.18,5.63-14.32,9.08-23.32,9.08c-9.7,0-18.46-3.91-24.8-10.33
					c0.16-9.23,6.18-17.06,14.71-19.72c-6.1-3.29-10.25-9.86-10.25-17.21c0-10.88,8.84-19.48,19.48-19.48
					c10.88,0,19.64,8.61,19.64,19.48c0,7.35-4.07,13.69-10.25,16.98C966.75,472.25,972.93,480.23,972.93,489.62z"/>
			</g>
			
				<linearGradient id="SVGID_00000145044041105591088860000001985531133325269393_" gradientUnits="userSpaceOnUse" x1="907.4461" y1="468.1405" x2="992.3383" y2="468.1405">
				<stop  offset="0" style="stop-color:#FFFFFF"/>
				<stop  offset="0.0976" style="stop-color:#F9F9F9"/>
				<stop  offset="0.2217" style="stop-color:#EAEAEA"/>
				<stop  offset="0.36" style="stop-color:#D0D0D0"/>
				<stop  offset="0.5087" style="stop-color:#ABABAB"/>
				<stop  offset="0.6658" style="stop-color:#7D7D7D"/>
				<stop  offset="0.83" style="stop-color:#434343"/>
				<stop  offset="0.9971" style="stop-color:#010101"/>
				<stop  offset="1" style="stop-color:#000000"/>
			</linearGradient>
			<path style="opacity:0.5;fill:url(#SVGID_00000145044041105591088860000001985531133325269393_);" d="M992.34,464.74
				c0,23.63-19.09,42.72-42.72,42.72c-21.12,0-38.73-15.26-42.17-35.44c2.74-1.56,6.1-2.11,9.31-2.66
				c6.1-0.94,12.13-1.96,18.15-3.29c6.73-1.56,13.22-3.44,19.56-6.1c2.66-1.17,5.32-2.43,7.35-4.54c2.03-2.03,3.29-4.77,4.54-7.35
				c0.31-0.7,0.63-1.41,0.94-2.03c1.1-2.43,2.19-4.85,3.29-7.2c1.02-2.35,2.11-4.69,2.35-7.2c0.08-0.94,0.08-1.88-0.08-2.82
				C984.59,436.41,992.34,449.64,992.34,464.74z"/>
			<path class="st12" d="M889.97,628.81c-0.88-2.79-2.45-4.28-4.39-4.85c-4.88-7.94-19.53-15.73-36.23-20.87
				c-0.97-3.64-1.35-7.92-1.38-12.57c1.71-0.66,3.33-1.27,5.24-2.06v0l1.37-0.42l7.99-14.01l0.72-23.22l-9.28-11.96l-21.29-4.68
				l-25.84-8.36l-15.91,21.08l23.06,19.02l0.46-0.13c-0.82,10.77,0.25,21.55,3.09,28.06c1.68,1.9,4.16,3.04,8.68,2.77
				c-0.11,0.45-0.22,0.89-0.34,1.31c-12.43-1.62-23.78-1.09-30.88,2.51c-10.53,3.52-23,11.25-21.77,27.23l1.22,54.08l-20.66,9.96
				l-76.57-16.58c-3.27-0.71-6.38,1.71-6.45,5.11l-0.16,9.98l-0.66,45.86c-0.04,2.5,1.73,4.72,4.21,5.25l0.4,0.09h0l0,0l-1.2-0.26
				c-1.2-0.26-2.45,0.14-3.23,1.05c-0.5,0.39-0.8,1-0.96,1.71l-1.19,5.5c-0.41,1.91,0.77,3.76,2.69,4.17l26.07,5.64
				c-7.29,7.16-12.06,14.12-11.89,19.54c1.19,8.87,22.09,28.57,49.22,50.13l-33.81,89.72l1.23,0.44l-4.24,9.66l-5.84,1.52
				c-0.11-0.08-0.22-0.14-0.34-0.23l-21.3,4.76c-10.76,5.32,37.68,18,44.36,13.25c2.73-3.06,3.85-9.06,0.34-12.17
				c-0.15,0.02-0.31,0.03-0.46,0.04l-0.22-2.5l3.35-8.67l2.8,1.01l42.68-75.1c18.38,13.45,37.46,26.5,54.11,37.04l0.73-0.65
				l6.78,8.38l-1.34,5.89c-0.13,0.06-0.23,0.13-0.36,0.19l-5.55,21.11c-0.22,12,33.29-25.22,32.14-33.33
				c-1.46-3.83-6.29-7.58-10.65-5.89c-0.05,0.14-0.12,0.28-0.17,0.43l-2.33-0.95l-6.07-6.85l1.31-1.16l-50.69-55.74l8.55-15.04
				c32.35-6.94,44.87-5.14,61.29-42.25c0.05-0.01,0.11,0,0.16-0.01c3.75-9.47,7.4-18.85,10.86-28.09
				c8.09-3.29,15.02-6.54,20.29-9.74C894.69,714.95,899.64,664.56,889.97,628.81z M775.5,709.42c-3.31,4.69-7.89,9.16-14.06,13.43
				c-0.59,0.08-1.12,0.1-1.73,0.21l0.11-7.71C765.41,713.37,770.66,711.39,775.5,709.42z M737.97,772.26
				c6,0.31,11.65,0.82,17.03,1.26l-4.65,12.35L737.97,772.26z"/>
			<g>
				<g>
					<g>
						<path class="st5" d="M268.55,909.05c-0.52,3.6-4.2,8.11-8.71,11.91c-4.79,4.12-10.6,7.48-14.31,8.15
							c-2.58,6.51-4.47,13.1-5.67,19.76c7.21-11.18,23.98-15.57,29.52-13.14c0.45,0.22,0.8,0.41,1.13,0.69l-0.22,0.85
							c-2.77,10.8-25.31,26.64-31.94,24.54c-0.61,14.59,1.77,29.34,6.55,43.79c1.45-20.63,27.4-36,34.55-32.75
							c2.58,13.99-20.43,44.65-30.02,44.62c1.68,4.07,3.58,8.09,5.6,12.04c3.31,6.4,6.97,12.59,11.07,18.69
							c2.54,3.88,5.22,7.6,8,11.34c-0.79-19.39,16.53-35.75,29.95-42.01c5.54-2.72,10.32-3.62,13.04-2.41
							c1.24,6.58-2.09,16.03-7.17,25.23c-0.14,0.17-0.31,0.43-0.36,0.61c-3.33,5.91-7.42,11.63-11.7,16.49
							c-5.35,6.3-10.91,11.04-15.26,12.65c1.72,1.96,3.42,4.01,5.23,5.99c8.51,9.35,17.67,18.16,27.35,26.09
							c0,0.81-0.01,1.61-0.13,2.49c-0.05,1-0.11,1.99-0.18,3.08c-6.19-5.02-12.18-10.39-18.01-16.03
							c-1.6,5.85-16.65,11.39-32.44,13.5c-5.13,0.71-10.47,1.05-15.38,0.91c-7.73-0.16-14.56-1.51-18.65-4.48
							c0.14-7.24,18.46-20.82,37.67-22.46c6.62-0.63,13.29,0.17,19.41,3.06c-4.53-4.8-8.89-9.85-13.03-14.95
							c-3.44-4.31-6.66-8.68-9.75-13.2c-4.28-6.15-8.28-12.62-11.78-19.07c-0.16-0.14-0.21-0.36-0.28-0.48
							c-3.56,4.44-15.88,8.35-28.1,9.56c-3.44,0.43-6.81,0.58-10.02,0.46c-6.31-0.2-11.76-1.4-15.09-3.77
							c0.07-3.82,6.46-9.86,15.17-13.89c3.69-1.78,7.68-3.18,11.89-3.82c7.44-1.43,15.36-0.81,22.07,3.33
							c-6.7-14.04-11.48-28.49-13.51-43.05c-7.04,6.58-36.06,11.46-45.44,4.72c0.09-7.45,27.67-24.42,44.72-10.96
							c-0.96-10.04-0.5-20.12,1.34-30.05c-5.33,3.08-18.84,4.97-23.55,1.64c0.05-4.13,15.05-13.41,24.5-6.14
							c1.27-5.33,3.05-10.73,5.31-16.01c-0.09-0.02-0.09-0.02-0.09-0.02c0.52-7.14,5.55-12.21,11.15-15.12
							C259.45,907.93,266.59,907.23,268.55,909.05z"/>
						<path class="st4" d="M287.86,1076.08c3.69,2.56,7.3,5.41,10.79,8.32c-4.63-8.36-3.74-18.53-0.77-26.96
							c2.87-8.45,7.92-15.14,11.7-16.49c0.12-0.07,0.33-0.12,0.43-0.09c0.21-0.05,0.43-0.09,0.64-0.14
							c4.45,5.48,5.19,17.99,3.74,29.14c-1.18,10.5-4.36,19.79-8.24,21.12c3.09,2.91,6.18,5.83,9.13,8.9
							c0.02,0.71,0.01,1.52-0.08,2.3c0,0.81-0.01,1.61-0.13,2.49c-7.73-8.44-16.51-16.35-25.82-23.38
							c-2.03,6.75-13.65,17.81-24.82,23.94c-5.52,3.03-10.82,4.8-14.93,4.25c-0.49-0.83-0.61-1.97-0.45-3.35
							c0.42-7.16,7.88-20.5,19.02-26.94c3.93-2.33,8.23-3.75,12.91-3.86c-10.45-6.92-21.4-12.65-32.57-16.73
							c0.36,7.26-21.67,25.85-32.22,24.46c-2.82-5.17,7.69-25.3,23.06-27.32c-11.06-2.94-22.28-4.09-33.18-2.95
							c1.96,4.95-9.65,23.48-17.66,25.17c-2.93-2.77-0.63-17.23,8.06-23.58c-4.94,1.16-9.84,2.93-14.55,5.16
							c-0.67,5.38-8.48,16.92-14.03,18.12c-2.86-2.65,0.52-19.36,11.99-20.76c3.81-1.85,7.76-3.47,11.8-4.65
							c-5.84-6.75,0.37-18.39,3.45-18.61c2.78,3.34,1.87,13.61-0.2,17.72c7.44-1.83,14.89-2.55,22.51-2.31
							c-1.25-1.43-2.19-2.88-2.89-4.48c-2.39-5.66-1.83-12.18,0.08-17.65c2.32-6.68,6.33-11.71,9.11-11.91
							c1.46,1.79,2.32,4.74,2.78,8.08c0.91,6.7,0.03,15.26-1.95,21.01c-0.68,2.25-1.54,4.05-2.45,5.23
							c11.08,0.92,22.14,3.86,32.93,8.24c-4.73-6.77-4.44-15.38-2.1-22.55c0.6-1.97,1.28-3.81,2.12-5.52
							c2.69-5.37,6.2-9.22,8.67-9.39c4.12,5.2,4.45,18.11,2.4,28.08c-0.34,2.13-0.85,4.12-1.41,5.9c-0.94,2.89-2.09,5.02-3.41,6.2
							c4.42,2.04,8.87,4.39,13.15,7.01C279.02,1069.98,283.51,1072.95,287.86,1076.08z"/>
					</g>
					<g>
						<path class="st8" d="M208.14,879.49c3.65,3.07,11.17,4.27,18.88,4.06c8.28-0.14,16.88-1.92,21.08-4.49
							c8.19,4.12,15.77,8.91,22.74,14.38c-16.78-4.65-37,5.67-40.3,12.87c-0.25,0.6-0.43,1.1-0.5,1.67l0.96,0.64
							c12.11,8.15,47.93,4,52.59-3.83c13.3,13.73,23.81,30.22,31.73,48.51c-19.39-18.91-58.13-11.33-62.29-1.93
							c9.67,15.92,58.85,25.86,68.2,17.48c1.89,5.44,3.54,11.03,5.01,16.64c2.34,9.14,4.15,18.38,5.46,27.91
							c0.9,6.01,1.51,11.98,2.05,18.05c-16.11-19.64-47.3-20.55-65.86-14.98c-7.79,2.17-13.24,5.45-14.85,9
							c4.51,7.51,16,13.85,28.98,18.42c0.28,0.04,0.67,0.15,0.89,0.29c8.41,2.88,17.38,4.9,25.8,5.93
							c10.72,1.5,20.28,1.29,25.93-0.92c0.02,3.41,0.15,6.89,0.1,10.41c-0.18,16.55-1.45,33.13-4.01,49.32
							c0.71,0.78,1.41,1.57,2.3,2.32c0.92,0.93,1.84,1.86,2.87,2.85c1.68-10.29,2.86-20.77,3.65-31.35
							c6.66,4.33,26.19-3.37,43.47-15.06c5.63-3.78,11.15-8.09,15.82-12.51c7.42-6.89,12.92-14.15,14.33-20.61
							c-6.44-6.95-36.18-4.27-56.38,10.84c-7.02,5.16-12.84,11.74-16.32,19.89c0.25-8.63,0.11-17.37-0.28-25.97
							c-0.4-7.21-1.04-14.28-1.97-21.39c-1.17-9.74-2.9-19.55-5.1-28.9c0.04-0.28-0.1-0.53-0.14-0.71
							c7.35,1.24,22.79-5.66,35.8-15.12c3.74-2.58,7.16-5.37,10.19-8.27c5.99-5.69,10.28-11.61,11.47-16.82
							c-3.39-3.67-14.9-4.01-26.92-0.36c-5.16,1.47-10.28,3.58-14.95,6.61c-8.51,5.08-15.72,12.58-18.67,22.48
							c-5.67-19.56-13.59-37.85-24.28-53.84c12.61,0.3,45.23-20.2,48.53-34.96c-6.58-7.2-48.31,0.22-53.26,28.23
							c-7.81-10.65-17.04-20.11-27.48-28.21c7.89-1.64,22.75-11.55,24.45-18.9c-3.64-3.99-26.39-0.01-29.3,15.33
							c-5.88-4.11-12.33-7.83-19.13-11.02c0.07-0.11,0.07-0.11,0.07-0.11c-6.72-6.53-16.06-7.1-24.06-5.07
							C216.07,870.46,208.48,876.01,208.14,879.49z"/>
						<path class="st16" d="M334.72,1059.57c-1.37,5.71-2.43,11.64-3.31,17.53c-2.75-12.2-12.48-21.36-22.73-27.02
							c-10.17-5.76-20.92-7.9-25.8-5.93c-0.18,0.03-0.43,0.18-0.5,0.28c-0.25,0.14-0.5,0.28-0.75,0.42
							c0.42,9.24,10.6,22.1,21.71,31.74c10.3,9.24,21.5,15.54,26.44,13.47c-0.49,5.54-0.97,11.08-1.17,16.65
							c0.6,0.71,1.31,1.5,2.09,2.18c0.71,0.78,1.41,1.57,2.3,2.32c0.21-14.99,1.9-30.36,4.88-45.34c7.87,4.83,28.85,5.52,45.1,1.79
							c8.04-1.85,14.76-4.73,18.29-8.84c-0.24-1.24-1.13-2.46-2.47-3.67c-6.65-6.63-25.55-13.18-42.05-9.77
							c-5.87,1.15-11.31,3.5-15.98,7.46c4.19-15.86,9.9-31,17.27-44.72c5.97,7.41,43.7,6.4,52.8-4.15
							c-1.74-7.5-29.55-18.03-46.33-6.63c8.26-12.5,18.21-23.4,29.86-31.77c2.39,6.55,29.88,14.55,39.18,9.22
							c0.45-5.25-14.38-17.39-28.42-16.03c5.84-3.17,12.17-5.7,18.72-7.63c5.34,4.68,23.01,9.15,29.49,5.49
							c0.48-5.08-17.36-18.47-29.8-9.86c-5.33,1.51-10.6,3.37-15.58,5.72c-0.16-11.69-16.37-17.65-19.58-15.18
							c0.19,5.68,10.02,14.93,15.63,17.15c-8.86,4.69-16.77,10.48-24.01,17.34c-0.02-2.49-0.37-4.73-1.07-6.9
							c-2.6-7.61-8.82-13.5-15.45-17.19c-8.08-4.51-16.39-5.93-19.27-3.7c0.13,3.02,1.86,6.65,4.33,10.32
							c4.94,7.34,13.26,14.94,20.2,18.84c2.62,1.61,5.03,2.61,6.95,2.98c-10.03,10.54-18.28,23.05-25.02,36.73
							c-1.27-10.73-9.05-18.9-17.59-23.87c-2.3-1.4-4.57-2.61-6.88-3.55c-7.3-2.91-14.09-3.61-16.65-1.63
							c0.5,8.67,11.42,21.57,22.11,29.54c2.19,1.79,4.43,3.29,6.52,4.54c3.44,2,6.42,3.08,8.72,3.09
							c-2.55,5.85-4.85,12.02-6.76,18.3C338.05,1045.91,336.24,1052.72,334.72,1059.57z"/>
					</g>
				</g>
				<g>
					<path class="st8" d="M361.79,1094.52c5.94,12.69,1.56,27.56-9.75,35.17c0,0-0.03,0.02-0.07,0.03c-1.16,0.78-2.43,1.5-3.74,2.11
						c-14.04,6.57-30.73,0.52-37.3-13.52c-2.91-6.21-3.35-12.9-1.76-19.01c1.22-4.58,3.54-8.79,6.85-12.26
						c2.34-2.46,5.17-4.54,8.42-6.06c8.22-3.85,17.3-3.37,24.75,0.48C354.53,1084.22,359.05,1088.67,361.79,1094.52z"/>
					<path class="st17" d="M357.08,1098.49c5.03,10.75,2.66,23.08-5.03,31.21c0,0-0.03,0.02-0.07,0.03
						c-2.34,2.46-5.17,4.54-8.42,6.06c-14.04,6.57-30.77,0.53-37.33-13.51c-3.23-6.9-3.39-14.52-1.02-21.2
						c1.95-5.6,5.67-10.59,10.82-14.04c1.16-0.78,2.43-1.5,3.74-2.11c10.19-4.77,21.78-2.86,29.89,3.93
						C352.71,1091.4,355.28,1094.64,357.08,1098.49z"/>
					<circle class="st8" cx="331.66" cy="1110.38" r="20.58"/>
					<path class="st10" d="M324.65,1113.95c6.27,4.58,9.99-3.36,11.08-11.89c1.08-8.53,1.77-8.65,2.53,2.19
						c0.75,10.84-5.02,25.3-14.18,16.46C316.03,1112.93,324.65,1113.95,324.65,1113.95z"/>
					
						<linearGradient id="SVGID_00000046297624915795600570000017766005758006390192_" gradientUnits="userSpaceOnUse" x1="224.775" y1="895.6147" x2="249.1808" y2="954.3879" gradientTransform="matrix(0.9058 -0.4238 0.4238 0.9058 -262.9674 379.8338)">
						<stop  offset="7.662835e-03" style="stop-color:#FFFFFF"/>
						<stop  offset="0.0345" style="stop-color:#EAEAEA"/>
						<stop  offset="0.1027" style="stop-color:#B9B9B9"/>
						<stop  offset="0.1764" style="stop-color:#8D8D8D"/>
						<stop  offset="0.2539" style="stop-color:#676767"/>
						<stop  offset="0.3364" style="stop-color:#474747"/>
						<stop  offset="0.4252" style="stop-color:#2D2D2D"/>
						<stop  offset="0.5227" style="stop-color:#191919"/>
						<stop  offset="0.6335" style="stop-color:#0B0B0B"/>
						<stop  offset="0.769" style="stop-color:#020202"/>
						<stop  offset="1" style="stop-color:#000000"/>
					</linearGradient>
					<path style="opacity:0.75;fill:url(#SVGID_00000046297624915795600570000017766005758006390192_);" d="M361.79,1094.52
						c5.94,12.69,1.56,27.56-9.75,35.17c0,0-0.03,0.02-0.07,0.03c-2.34,2.46-5.17,4.54-8.42,6.06
						c-14.04,6.57-30.77,0.53-37.33-13.51c-3.23-6.9-3.39-14.52-1.02-21.2c1.3-0.65,2.61-1.26,3.98-1.78
						c2.05-0.76,4.11-1.32,6.26-1.53c0.05,0.02,0.11-0.01,0.16,0c6.07-0.39,11.95,2.34,18.04,2.42c0.8-0.01,1.58-0.06,2.37-0.15
						c0.62-0.05,1.29-0.16,1.89-0.32c3.01-0.68,5.85-2.14,8-4.22c1.66-1.58,2.95-3.54,3.58-5.8c0.07-0.27,0.14-0.55,0.17-0.84
						c0.6-2.65,0.28-5.06-0.46-7.4C354.53,1084.22,359.05,1088.67,361.79,1094.52z"/>
				</g>
			</g>
			<g>
				<path class="st9" d="M732.5,860.53c-4.18,73.51-33.78,139.94-80.27,190.93c-18.66,20.75-40.05,38.93-63.86,53.89
					c-80.75-51.47-154.58-232.76-154.58-232.76s5.15-5.15,8.04-8.69c1.29-1.61,2.25-2.9,2.25-3.38l144.29-69.33l118.23,56.94
					L732.5,860.53z"/>
				<path class="st8" d="M722.2,872.6c-3.86,67.88-29.44,129.65-69.97,178.87c-20.91,25.74-46,47.93-74.15,65.95
					c-82.2-52.28-138.33-141.55-144.29-244.82l15.44-7.4l128.68-61.93l99.25,47.61L722.2,872.6z"/>
				<g>
					<path class="st19" d="M660.81,935.18c0,45.76-37.13,82.89-82.89,82.89c-45.69,0-82.81-37.13-82.81-82.89
						c0-5.42,0.55-10.75,1.49-15.86c7.46-38.23,41.05-66.96,81.32-66.96c20.33,0,39.01,7.3,53.38,19.47
						C649.35,886.98,660.81,909.75,660.81,935.18z"/>
					<g>
						<path class="st9" d="M577.92,1007.91c-40.07,0-72.66-32.62-72.66-72.72c0-4.53,0.44-9.19,1.3-13.87
							c6.65-34.09,36.66-58.79,71.36-58.79c17.2,0,33.83,6.07,46.84,17.09c16.44,13.8,25.88,34.06,25.88,55.57
							C650.65,975.29,618.02,1007.91,577.92,1007.91z M577.92,870.94c-30.69,0-57.22,21.85-63.09,51.94
							c-0.76,4.13-1.15,8.29-1.15,12.3c0,35.46,28.82,64.31,64.24,64.31c35.46,0,64.31-28.85,64.31-64.31
							c0-19.02-8.34-36.93-22.89-49.14C607.83,876.3,593.13,870.94,577.92,870.94z"/>
					</g>
					<path class="st9" d="M610.16,973.56v6.09c-9.02,6.82-20.23,10.72-32.25,10.72c-12.02,0-23.23-3.98-32.25-10.8v-6.01
						c0-11.94,6.58-22.42,16.25-27.94c-8.61-5.44-14.38-14.95-14.38-25.91c0-16.73,13.65-30.3,30.46-30.3
						c16.65,0,30.3,13.57,30.3,30.3c0,10.89-5.69,20.47-14.3,25.83c2.52,1.46,4.79,3.17,6.82,5.2
						C606.59,956.58,610.16,964.63,610.16,973.56z"/>
				</g>
				
					<linearGradient id="SVGID_00000039105928258684407800000005456037922150641282_" gradientUnits="userSpaceOnUse" x1="433.7918" y1="982.4047" x2="732.4981" y2="982.4047">
					<stop  offset="0" style="stop-color:#FFFFFF"/>
					<stop  offset="0.0976" style="stop-color:#F9F9F9"/>
					<stop  offset="0.2217" style="stop-color:#EAEAEA"/>
					<stop  offset="0.36" style="stop-color:#D0D0D0"/>
					<stop  offset="0.5087" style="stop-color:#ABABAB"/>
					<stop  offset="0.6658" style="stop-color:#7D7D7D"/>
					<stop  offset="0.83" style="stop-color:#434343"/>
					<stop  offset="0.9971" style="stop-color:#010101"/>
					<stop  offset="1" style="stop-color:#000000"/>
				</linearGradient>
				<path style="opacity:0.5;fill:url(#SVGID_00000039105928258684407800000005456037922150641282_);" d="M732.5,860.53
					c-4.18,73.51-33.78,139.94-80.27,190.93c-20.91,25.74-46,47.93-74.15,65.95c-82.2-52.28-138.33-141.55-144.29-244.82
					c0,0,5.15-5.15,8.04-8.69c2.41,0.32,4.99,0.8,7.4,1.29c12.55,2.41,24.93,6.27,36.68,11.58c21.71,9.97,41.5,24.61,64.82,29.6
					c32.01,6.76,65.79-6.43,90.24-27.99c9.49-8.52,18.02-18.18,29.11-24.29c2.25-1.29,4.67-2.25,7.08-3.22
					c9.33-3.38,19.46-4.34,29.44-2.74L732.5,860.53z"/>
			</g>
			<g>
				<path class="st4" d="M760.64,656.52c-20.07,12.15-63.69,25.15-106.81,38.14l-5.44-12.25l90.57-43.69l-1.23-54.08
					c-1.96-25.48,30.9-29.99,35.2-29.89C777.18,592.6,773.59,647.47,760.64,656.52z"/>
				<g>
					<polygon class="st21" points="666.55,874.78 661.75,885.73 644.34,890.25 679.06,898.98 678.3,890.4 682.15,880.42 					"/>
					<path class="st22" d="M678.98,892.86c-7.71,0.96-15.47,0.22-23.4-5.84l-21.3,4.76c-10.76,5.32,37.68,18,44.36,13.25
						C681.36,901.97,682.48,895.96,678.98,892.86z"/>
				</g>
				<g>
					<polygon class="st21" points="781.22,843.12 788.74,852.41 784.76,869.95 808.46,843.12 800.48,839.85 793.39,831.85 					"/>
					<path class="st22" d="M802.98,840.38c-2.69,7.29-6.91,13.85-15.93,18.11l-5.55,21.11c-0.22,12,33.29-25.22,32.14-33.33
						C812.17,842.44,807.35,838.69,802.98,840.38z"/>
				</g>
				<path class="st10" d="M780.85,702.7c-20.68,36.88-44.07,28.3-78.43,26.55l93.3,102.6l-14.49,12.83
					c-52.63-33.32-129.56-91.64-131.87-108.91c-0.58-18.64,56.1-55.32,79.3-56.27L780.85,702.7z"/>
				<path class="st10" d="M815.59,717.25c-16.78,38.81-29.19,36.77-62.01,43.81l-69.14,121.68l-19.68-7.12l55.62-147.58
					c11.84-21.45,41.89-26.6,62.96-30.1L815.59,717.25z"/>
				<path class="st4" d="M724.61,680.75c15.32,19.81,67.33,40.9,90.43,38.05c20.73-52.34,38.66-102.45,36-136.29
					c-8.59-19.41-79.7-38.93-95.81-22.11C733.48,612.31,768.9,651.43,724.61,680.75z"/>
				<path class="st4" d="M846.19,680.98c-20.07,12.15-63.69,25.15-106.81,38.14l-5.44-12.25l90.57-43.69l-1.23-54.08
					c-0.58-14.42,26.09-39.32,31.14-23.31C864.09,621.55,859.14,671.93,846.19,680.98z"/>
				<g>
					<path class="st7" d="M723.74,710.23c-0.07,3.41-3.18,5.82-6.45,5.12l-78.63-17.02c-2.47-0.54-4.25-2.76-4.21-5.25l0.66-45.86
						l0.16-9.98c0.07-3.41,3.18-5.82,6.45-5.12l78.63,17.02c2.47,0.54,4.25,2.76,4.21,5.25l-0.09,3.49L723.74,710.23z"/>
					<path class="st10" d="M681.5,681.11l-6.84-1.48c-1.78-0.39-3.17-2.25-3.12-4.16l0.22-7.36c0.06-1.91,1.55-3.15,3.32-2.77
						l6.84,1.48c1.78,0.39,3.17,2.25,3.12,4.16l-0.22,7.36C684.76,680.25,683.28,681.49,681.5,681.11z"/>
					<path class="st7" d="M764.22,729.17l-1.19,5.5c-0.41,1.91-2.34,3.08-4.17,2.69l-123.68-26.78c-1.91-0.41-3.1-2.26-2.69-4.17
						l1.19-5.5c0.16-0.72,0.45-1.32,0.96-1.71c0.78-0.92,2.04-1.31,3.23-1.05l123.68,26.78
						C763.38,725.32,764.63,727.26,764.22,729.17z"/>
					
						<linearGradient id="SVGID_00000168798843316845416460000006310808517459529642_" gradientUnits="userSpaceOnUse" x1="666.4715" y1="645.2958" x2="705.0048" y2="736.8123" gradientTransform="matrix(0.9946 0.1038 -0.1038 0.9946 70.5499 -70.0786)">
						<stop  offset="0" style="stop-color:#FFFFFF"/>
						<stop  offset="0.2563" style="stop-color:#C2C2C2"/>
						<stop  offset="0.8455" style="stop-color:#292929"/>
						<stop  offset="1" style="stop-color:#000000"/>
					</linearGradient>
					<path style="opacity:0.5;fill:url(#SVGID_00000168798843316845416460000006310808517459529642_);" d="M716.43,728.18
						l-81.26-17.59c-1.91-0.41-3.1-2.26-2.69-4.17l1.19-5.5c0.16-0.72,0.45-1.32,0.96-1.71c0.08,0.02,0.1-0.06,0.18-0.04
						c1.41-0.36,2.87-0.55,4.25-0.75c1.46-0.18,2.84-0.39,4.17-0.77c6.03-2.03,9.77-8.49,9.98-14.87c0.28-6.29-2.4-12.46-5.83-17.79
						c-3.36-5.32-7.57-10.15-10.91-15.55c-0.5-0.78-0.94-1.46-1.36-2.21l0.16-9.98c0.07-3.41,3.18-5.82,6.45-5.12l78.63,17.02
						c2.47,0.54,4.25,2.76,4.21,5.25l-0.09,3.49c-2.43-1.11-5.09-1.94-8.14-2.1c-8.14-0.59-16.67,2.57-21.29,9.25
						c-2.29,3.26-3.47,7.18-4.5,11.13c-1.63,6.74-2.34,14.69,2.16,20.09c2.92,3.47,7.41,5.11,11.31,7.54
						c4.26,2.68,7.87,6.46,10.17,10.88c0.84,1.52,1.41,3.14,1.88,4.83C716.78,722.33,716.96,725.37,716.43,728.18z"/>
				</g>
				<polygon class="st21" points="741.37,705.69 733.37,702.52 723.29,716.68 743.65,721.58 746.84,717.85 				"/>
				<path class="st21" d="M787.54,560.76c3.4-3.04,4.53-14.38,5.98-24.6l19.4-0.76c-0.79,9.6-0.92,18.49,0.98,25.18
					C804.74,570.34,789.74,569.58,787.54,560.76z"/>
				<path class="st21" d="M782.03,550.82c3.66,4.14,10.59,4.95,35.63-5.39l8.09-40.04l-38.8-10.16
					C777.64,508.46,776.43,537.97,782.03,550.82z"/>
				<polygon class="st24" points="755.43,503.87 778.49,522.89 802.44,516.34 799.22,526.43 802.28,528.23 807.96,519.94 
					811.48,526.79 802.94,535.29 810.06,547.76 819.03,545.01 827.02,531 827.74,507.78 818.46,495.82 797.17,491.14 771.34,482.79 
									"/>
			</g>
		</g>
	</g>
</g>
</svg>
